<svg width="40" height="40" viewBox="0 0 40 40" xmlns="http://www.w3.org/2000/svg">
  <defs>
    <linearGradient id="logoGradient" x1="0%" y1="0%" x2="100%" y2="100%">
      <stop offset="0%" style="stop-color:#3b82f6;stop-opacity:1" />
      <stop offset="100%" style="stop-color:#8b5cf6;stop-opacity:1" />
    </linearGradient>
    <linearGradient id="accentGradient" x1="0%" y1="0%" x2="100%" y2="100%">
      <stop offset="0%" style="stop-color:#06b6d4;stop-opacity:1" />
      <stop offset="100%" style="stop-color:#3b82f6;stop-opacity:1" />
    </linearGradient>
  </defs>
  
  <!-- Robot head outline -->
  <rect x="8" y="6" width="24" height="20" rx="4" ry="4" fill="url(#logoGradient)" stroke="none"/>
  
  <!-- Robot eyes -->
  <circle cx="15" cy="14" r="2.5" fill="white"/>
  <circle cx="25" cy="14" r="2.5" fill="white"/>
  <circle cx="15" cy="14" r="1.2" fill="url(#accentGradient)"/>
  <circle cx="25" cy="14" r="1.2" fill="url(#accentGradient)"/>
  
  <!-- Robot mouth/display -->
  <rect x="12" y="18" width="16" height="3" rx="1.5" ry="1.5" fill="white"/>
  <rect x="13" y="19" width="4" height="1" rx="0.5" ry="0.5" fill="url(#accentGradient)"/>
  <rect x="18" y="19" width="6" height="1" rx="0.5" ry="0.5" fill="url(#accentGradient)"/>
  
  <!-- Robot body -->
  <rect x="12" y="26" width="16" height="10" rx="2" ry="2" fill="url(#logoGradient)" stroke="none"/>
  
  <!-- Data/circuit pattern -->
  <circle cx="16" cy="30" r="1" fill="white"/>
  <circle cx="20" cy="30" r="1" fill="white"/>
  <circle cx="24" cy="30" r="1" fill="white"/>
  <line x1="17" y1="30" x2="19" y2="30" stroke="white" stroke-width="0.8"/>
  <line x1="21" y1="30" x2="23" y2="30" stroke="white" stroke-width="0.8"/>
  
  <!-- Data lines -->
  <line x1="14" y1="33" x2="26" y2="33" stroke="white" stroke-width="1" opacity="0.6"/>
  <line x1="16" y1="35" x2="24" y2="35" stroke="white" stroke-width="1" opacity="0.4"/>
  
  <!-- Antenna/connection indicator -->
  <circle cx="20" cy="4" r="1.5" fill="url(#accentGradient)"/>
  <line x1="20" y1="6" x2="20" y2="5.5" stroke="url(#accentGradient)" stroke-width="2"/>
</svg>